<svg width="16" height="13" viewBox="0 0 16 13" fill="none" xmlns="http://www.w3.org/2000/svg">
<path d="M2.96712 7.27214L7.60219 11.6263C7.65404 11.675 7.67996 11.6993 7.70464 11.7174C7.8805 11.8462 8.1195 11.8462 8.29536 11.7174C8.32004 11.6993 8.34597 11.675 8.39781 11.6263L13.0329 7.27214C14.337 6.04706 14.4954 4.03106 13.3985 2.61738L13.1923 2.35156C11.8802 0.660383 9.24642 0.944007 8.32445 2.87576C8.19421 3.14864 7.80579 3.14864 7.67556 2.87576C6.75358 0.944007 4.11982 0.660384 2.8077 2.35156L2.60146 2.61738C1.50463 4.03106 1.663 6.04706 2.96712 7.27214Z" stroke="#5F5F5F" stroke-width="2"/>
</svg>
